<?xml version="1.0" standalone="no"?><!DOCTYPE svg PUBLIC "-//W3C//DTD SVG 1.1//EN" "http://www.w3.org/Graphics/SVG/1.1/DTD/svg11.dtd"><svg t="1544842934665" class="icon" style="" viewBox="0 0 1024 1024" version="1.1" xmlns="http://www.w3.org/2000/svg" p-id="14167" xmlns:xlink="http://www.w3.org/1999/xlink" width="200" height="200"><defs><style type="text/css"></style></defs><path d="M521.3602389 749.88332045c-98.51099253 5.22797407-185.14081836-53.09156477-222.88883327-132.66047538-41.48124755-87.37647235-33.67440998-173.73472451 25.59527457-250.72404741 56.417799-73.39079082 134.96848941-102.516523 227.97993421-91.58622623 46.16607427 5.43147326 86.9013995 24.10125732 122.34067619 53.70206237 19.28100586 16.09019637 18.805933 23.28653634-2.51223744 35.30385195-18.53435933 10.45594811-37.20486761 20.7750231-55.67115246 31.43374623-50.98632574 29.39730585-102.31302382 58.31881462-152.75620223 88.6669904-27.02121735 16.2256211-32.38461613 42.22861825-17.31191575 69.11368668 16.29369558 29.12573218 47.99901545 35.84699929 81.53800071 16.76876844 99.66463745-56.68937265 198.99107515-113.98996711 298.92728626-170.13691665 16.56526923-9.301579 18.33086014-18.73785853 10.99909544-34.48913097-25.86684823-55.39957882-63.95451126-100.88708103-114.94083703-134.96848941-112.76824773-75.15565753-233.07175934-87.24104762-356.22788071-30.0758779-122.88382351 57.02902078-189.68949616 157.10138082-200.75521766 289.08255993-9.16543007 109.37393904 33.13126266 201.97766125 113.31139504 278.22033764 111.88545227 106.25047982 298.79113733 122.95189798 427.31065749 37.54451573 33.47091078-22.26831615 33.47091078-22.26831615 12.69588769-56.2142998-22.40446508-36.72979475-44.67278124-43.51841212-83.64251554-25.18755197-36.79786919 17.37999022-75.0202328 28.65065932-113.98996712 26.20649635z" fill="#27acff" p-id="14168"></path><path d="M859.59690762 594.47945607c-1.83294118-26.27384663-16.36177003-47.59201705-28.85415853-69.65683401-4.07360495-7.19706416-10.59137286-4.41325307-16.49719476-1.15436911-22.87953795 12.89938689-45.75907588 25.93492269-68.84211302 38.49466145-9.77665185 5.36339879-11.54224276 11.81381644-5.90654611 21.25009596 13.17096054 21.79324329 26.20649636 43.65383685 38.76623513 65.78745245 5.49954772 9.57315266 12.01731563 11.81381644 21.52166961 5.90654614 13.78145814-8.55493249 28.03943753-16.56526923 41.3458228-25.79877378 11.94924116-8.21528435 18.94135774-19.75607872 18.46628488-34.8287791z" fill="#27acff" p-id="14169"></path></svg>